<?xml version="1.0" standalone="no"?><!DOCTYPE svg PUBLIC "-//W3C//DTD SVG 1.1//EN" "http://www.w3.org/Graphics/SVG/1.1/DTD/svg11.dtd"><svg class="icon" width="200px" height="200.00px" viewBox="0 0 1024 1024" version="1.1" xmlns="http://www.w3.org/2000/svg"><path fill="#DD2619" d="M64.5 959.5h895v-895l-895 895z m834.21-366.29L656.03 891.54c-7.58 9.31-18.63 14.15-29.78 14.15-2.17 0-4.34-0.19-6.49-0.56-1.81 0.26-3.62 0.57-5.45 0.57-8.85 0-17.76-3.05-24.98-9.26L428.1 757.85c-16.07-13.81-17.9-38.03-4.1-54.09 13.82-16.07 38.04-17.89 54.09-4.1L616.46 818.6 839.2 544.79c13.37-16.42 37.52-18.93 53.96-5.54 16.44 13.37 18.92 37.51 5.55 53.96z" /></svg>